# xmcd
#
# Track frame offsets:
#	150
#	14838
#	31115
#	46295
#	66211
#	83390
#	100320
#	117571
#	132807
#	150125
#	166835
#	188440
#	207421
#	224369
#	240310
#
# Disc length: 3444 seconds
#
# Revision: 2
# Processed by: cddbd v1.5.2PL0 Copyright (c) Steve Scherf et al.
# Submitted via: audiograbber 1.83.01
#
DISCID=b90d720f
DTITLE=Various Artist - CBP60171
DYEAR=1900
DGENRE=
TTITLE0=Toby Keith - If a Man Answers
TTITLE1=Kathy Mattea and Michael McDonald - Among the Missing
TTITLE2=Keith Harling - There Goes the Neighborhood
TTITLE3=Faith of the Heart - Susan Ashton
TTITLE4=Lonestar - Saturday Night
TTITLE5=Sons of the Desert - What About You
TTITLE6=Allison Moorer - Pardon Me
TTITLE7=Neal McCoy - I Was
TTITLE8=Charlie Robison - Barlight
TTITLE9=Julie Reeves - It's About Time
TTITLE10=Steve Wariner - Two Teardrops
TTITLE11=Lorrie Morgan and Sammy Kershaw - Maybe Not Tonight
TTITLE12=Jim Witter - All My Life
TTITLE13=Mark Nesler - Baby Ain't Rockin' Me Right
TTITLE14=Brad Paisley - Who Needs Pictures
EXTD=
EXTT0=
EXTT1=
EXTT2=
EXTT3=
EXTT4=
EXTT5=
EXTT6=
EXTT7=
EXTT8=
EXTT9=
EXTT10=
EXTT11=
EXTT12=
EXTT13=
EXTT14=
PLAYORDER=
